<?xml version="1.0"?>
<svg xmlns="http://www.w3.org/2000/svg" height="440pt" viewBox="-100 0 440 440" width="440pt">
  <!-- can body -->
  <path d="m216 400h-8l-8 8h-152l-16-8h-8c-8.835938 0-16-7.164062-16-16v-280c0-8.835938 7.164062-16 16-16v-8h192v8c8.835938 0 16 7.164062 16 16v280c0 8.835938-7.164062 16-16 16zm0 0" fill="#2E469C"/>
  <path d="m32 400h176l-8 32h-160zm0 0" fill="#dbdbdb"/>
  <path d="m200 64h-32v-40c0-8.835938 7.164062-16 16-16s16 7.164062 16 16zm0 0" fill="#e4e4e2"/>
  <path d="m167.398438 214.472656-.542969-4.5625c-4.8125-37.085937-2.277344-74.761718 7.457031-110.871094 1.046875-3.703124 2.167969-7.390624 3.359375-11.039062h-57.671875v54.742188c-1.148438 30.164062 3.800781 60.25 14.550781 88.457031 9.910157 22.226562 16.640625 45.738281 20 69.839843 1.710938 12.769532.726563 25.753907-2.886719 38.121094-6.230468 20.839844-17.761718 41.289063-24.464843 60.839844h57.679687l3.296875-23.878906c3.25-22.328125 4.40625-44.90625 3.457031-67.449219-.203124-18.34375-4.121093-36.460937-11.519531-53.246094-6.492187-12.847656-10.789062-26.691406-12.714843-40.953125zm0 0" fill="#e4e4e2"/>
  <!--  -->
  <path d="m24 56h192v32h-192zm0 0" fill="#dbdbdb"/>
  <path d="m24 408h1.761719l6.476562 25.945312c.894531 3.558594 4.09375 6.054688 7.761719 6.054688h160c3.667969 0 6.867188-2.496094 7.761719-6.054688l6.476562-25.945312h1.761719c13.253906 0 24-10.746094 24-24v-280c-.042969-10.132812-6.445312-19.148438-16-22.527344v-25.472656c0-4.417969-3.582031-8-8-8h-8v-24c0-13.253906-10.746094-24-24-24s-24 10.746094-24 24v24h-136c-4.417969 0-8 3.582031-8 8v25.472656c-9.554688 3.378906-15.9570312 12.394532-16 22.527344v280c0 13.253906 10.746094 24 24 24zm169.753906 16h-147.507812l-4-16h155.507812zm-31.242187-124c-3.433594-24.855469-10.375-49.09375-20.617188-72-9.480469-21.960938-13.894531-49.054688-13.894531-85.257812v-46.742188h38.855469c-.078125.289062-.160157.574219-.246094.871094-10.066406 37.117187-12.683594 75.859375-7.699219 113.992187l.554688 4.5625c2 15.152344 6.546875 29.855469 13.445312 43.496094 6.980469 15.800781 10.632813 32.867187 10.730469 50.140625.941406 22.046875-.191406 44.128906-3.382813 65.960938l-2.355468 16.976562h-39.101563c2.070313-5.070312 4.367188-10.246094 6.742188-15.601562 5.332031-11.351563 9.945312-23.027344 13.808593-34.957032 3.917969-13.445312 4.992188-27.558594 3.160157-41.441406zm53.488281-204c4.417969 0 8 3.582031 8 8v280c0 4.417969-3.582031 8-8 8h-21.945312l2.050781-14.785156c3.328125-22.820313 4.507812-45.902344 3.519531-68.941406-.171875-19.433594-4.367188-38.617188-12.320312-56.34375-6.109376-12.039063-10.152344-25.023438-11.953126-38.402344l-.542968-4.558594c-4.746094-36.039062-2.296875-72.660156 7.199218-107.746094.496094-1.75 1.054688-3.480468 1.601563-5.214844zm-40-72c0-4.417969 3.582031-8 8-8s8 3.582031 8 8v24h-16zm-144 40h176v16h-176zm-16 40c0-4.417969 3.582031-8 8-8h88v46.742188c0 38.457031 4.800781 67.570312 15.199219 91.601562 9.636719 21.535156 16.175781 44.324219 19.433593 67.6875 1.546876 11.660156.652344 23.515625-2.632812 34.808594-3.679688 11.28125-8.054688 22.324218-13.105469 33.0625-3.199219 7.273437-6.398437 14.714844-9.191406 22.097656h-97.703125c-4.417969 0-8-3.582031-8-8zm0 0"/>
</svg>